<svg width="48" height="762" viewBox="0 0 48 762" fill="none" xmlns="http://www.w3.org/2000/svg">
<path fill-rule="evenodd" clip-rule="evenodd" d="M27.1846 0.804688C13.5 18.3047 0 39.3265 0 63.7956C0 92.0997 9.54349 114.245 18.6957 135.482L18.8411 135.82L18.9154 135.992C28.0844 157.269 36.785 177.459 36.785 203.398C36.785 229.342 28.2275 249.197 19.1424 270.276L18.8411 270.975L18.6952 271.313C9.54311 292.551 0 314.696 0 342.999C0 371.302 9.54311 393.447 18.6952 414.685L18.8411 415.023L18.9154 415.195C28.0844 436.472 36.785 456.663 36.785 482.601C36.785 508.545 28.2275 528.401 19.1424 549.48L18.8411 550.179L18.6957 550.517C9.54349 571.754 0 593.899 0 622.203C0 650.507 9.54349 672.652 18.6957 693.889L18.8411 694.227L18.9154 694.399C28.0844 715.676 36.785 735.866 36.785 761.805C42.5 734.305 38.4569 711.357 29.3048 690.119L29.1589 689.781L29.0846 689.609C19.9156 668.332 11.215 648.141 11.215 622.203C11.215 596.259 19.7725 576.403 28.8576 555.324L29.1589 554.625L29.3043 554.287C38.4565 533.05 48 510.905 48 482.601C48 454.297 38.4565 432.152 29.3043 410.915L29.1589 410.577L29.0846 410.405C19.9156 389.128 11.215 368.938 11.215 342.999C11.215 317.055 19.7728 297.199 28.8582 276.119L29.1589 275.421L29.3043 275.084C38.4565 253.847 48 231.701 48 203.398C48 175.094 38.4565 152.948 29.3043 131.711L29.1589 131.374L29.0846 131.202C19.9156 109.925 11.215 89.7345 11.215 63.7956C11.215 39.4517 18.7495 20.4686 27.1846 0.804688Z" fill="#62295E"/>
</svg>
