<svg id="Layer_1" data-name="Layer 1" xmlns="http://www.w3.org/2000/svg" viewBox="0 0 93 94"><defs><style>.cls-1{fill:#d2fff3;}.cls-1,.cls-2{stroke:#382b73;stroke-linecap:round;stroke-linejoin:round;stroke-width:3px;}.cls-2{fill:#38face;}</style></defs><circle class="cls-1" cx="46.5" cy="47.3" r="43"/><path class="cls-2" d="M69.56,28.68H62.23c0-.49.06-.95.06-1.44a1.43,1.43,0,0,0-1.43-1.44H32.14a1.43,1.43,0,0,0-1.43,1.44c0,.49.05,1,.06,1.44H23.44A1.43,1.43,0,0,0,22,30.11v3.64A15.09,15.09,0,0,0,36.33,48.69a14.3,14.3,0,0,0,5.83,4.91,21.4,21.4,0,0,1-5.28,12.83,1,1,0,0,0-.31.46h0a1.11,1.11,0,0,0-.12.55v3.49l-1.43,1a1.44,1.44,0,1,0,0,2.87H58a1.44,1.44,0,1,0,0-2.87l-1.43-1V67.44a1.11,1.11,0,0,0-.12-.55,1,1,0,0,0-.31-.46A21.11,21.11,0,0,1,50.84,53.6a14.33,14.33,0,0,0,5.84-4.91A15.08,15.08,0,0,0,71,33.75V30.11A1.43,1.43,0,0,0,69.56,28.68Zm-41.75,6V33.39H31.4a22.58,22.58,0,0,0,2.12,8.35A7.28,7.28,0,0,1,27.81,34.7Zm31.68,7a22.58,22.58,0,0,0,2.12-8.35H65.2V34.7A7.28,7.28,0,0,1,59.49,41.74Zm-23,25.7h20.1"/></svg>