<svg id="Layer_1" data-name="Layer 1" xmlns="http://www.w3.org/2000/svg" viewBox="0 0 93 94"><defs><style>.cls-1{fill:#d2fff3;}.cls-1,.cls-2,.cls-3{stroke:#382b73;stroke-linecap:round;stroke-linejoin:round;stroke-width:3px;}.cls-2{fill:none;}.cls-3{fill:#38face;}.cls-4{fill:#382b73;}</style></defs><circle class="cls-1" cx="46.5" cy="47.3" r="43"/><polyline class="cls-2" points="31.02 87.43 22.7 34.09 21.21 24.52"/><path class="cls-3" d="M27.05,62s11.16-8.44,22.65-4.81C64.91,62,72,54.83,72,54.83L68.39,26.51S63.6,34.75,46.5,32.26c-19.29-2.8-23.45,4.05-23.45,4.05Z"/><path class="cls-4" d="M43.64,36.82c-.09.69-.18,1.37-.26,2s-.18,1.34-.27,2h1.42c.08-.69.16-1.37.25-2s.18-1.34.26-2h2.9c-.09.69-.18,1.37-.26,2s-.17,1.34-.26,2h1.92c-.05.45-.09.92-.13,1.38s-.09.93-.15,1.39H47.12l-.09.74-.09.77h1.94l-.18,1.39c-.06.46-.12.93-.16,1.4H46.59c-.06.65-.13,1.3-.22,1.94s-.16,1.29-.24,2H43.25q.12-1,.24-2c.08-.64.16-1.29.22-1.94h-1.4c-.06.65-.14,1.3-.23,1.94s-.17,1.29-.23,2H39q.11-1,.24-2c.08-.64.15-1.29.21-1.94H37.6l.18-1.4c.06-.46.11-.92.16-1.39h1.81l.09-.77.09-.74H38.12c.06-.46.11-.92.15-1.39s.09-.93.15-1.38h1.81c.09-.69.18-1.37.26-2s.17-1.34.27-2Zm-.82,6.83c0,.24,0,.49-.08.74s-.08.51-.11.77h1.42l.09-.77c0-.25.06-.5.07-.74Z"/><path class="cls-4" d="M50.85,36.66H55.4V51.84H52.06v-12H50.85Z"/></svg>