<svg id="Layer_1" data-name="Layer 1" xmlns="http://www.w3.org/2000/svg" viewBox="0 0 93 94"><defs><style>.cls-1{fill:#d2fff3;}.cls-1,.cls-2,.cls-3,.cls-4{stroke:#382b73;stroke-linecap:round;stroke-linejoin:round;stroke-width:3px;}.cls-2{fill:#38face;}.cls-3,.cls-4{fill:none;}.cls-4{stroke-dasharray:2 5;}</style></defs><circle class="cls-1" cx="46.5" cy="47.3" r="43"/><path class="cls-2" d="M42.88,25.23A10.16,10.16,0,1,1,60.51,35.34c-2.79,4.87-16.23,19.17-21.1,16.38S40.09,30.1,42.88,25.23Z"/><rect class="cls-2" x="50.61" y="17.97" width="12" height="4.3" transform="translate(99.43 62.26) rotate(-155.04)"/><path class="cls-3" d="M63,20.85a3,3,0,0,1,1.67-1c.64-.18,1.31-.25,2-.4a11.85,11.85,0,0,0,5.65-3.66"/><path class="cls-3" d="M52.07,15.63a.65.65,0,0,0,.07-.51c-.27-1.86-1.6-3.46-1.82-5.33a4.72,4.72,0,0,1,.92-3.4"/><path class="cls-4" d="M36,55.38a18.2,18.2,0,0,1-7.37,9.06c-3.36,2.09-8,2.94-11.18.63A7,7,0,0,1,23.78,52.8a10.82,10.82,0,0,1,5,4.19c2.95,4.1,4.52,9.07,7.48,13.17s8.2,7.34,12.95,5.61c3.86-1.42,5.94-5.5,8.93-8.33A15.37,15.37,0,0,1,71.55,63.5a13.82,13.82,0,0,1,10.29,9.23"/></svg>