<?xml version="1.0" encoding="UTF-8"?>
<svg width="100px" height="100px" viewBox="0 0 100 100" version="1.1" xmlns="http://www.w3.org/2000/svg" xmlns:xlink="http://www.w3.org/1999/xlink">
    <!-- Generator: Sketch 53.2 (72643) - https://sketchapp.com -->
    <title>Group 2</title>
    <desc>Created with Sketch.</desc>
    <defs>
        <linearGradient x1="67.1056592%" y1="96.9974116%" x2="32.8943408%" y2="3.00258842%" id="linearGradient-1">
            <stop stop-color="#0058D0" stop-opacity="0.9" offset="0%"></stop>
            <stop stop-color="#0075D2" stop-opacity="0.9255" offset="17.71%"></stop>
            <stop stop-color="#008CD4" stop-opacity="0.9527" offset="36.59%"></stop>
            <stop stop-color="#009AD6" stop-opacity="0.9781" offset="54.3%"></stop>
            <stop stop-color="#009FD6" offset="69.5%"></stop>
            <stop stop-color="#00FFFF" offset="100%"></stop>
        </linearGradient>
        <linearGradient x1="21.2526518%" y1="-2.67759109%" x2="77.4239271%" y2="100.25249%" id="linearGradient-2">
            <stop stop-color="#004ECE" stop-opacity="0.9" offset="0%"></stop>
            <stop stop-color="#0054CF" stop-opacity="0.9044" offset="2.855196%"></stop>
            <stop stop-color="#0075D2" stop-opacity="0.9307" offset="19.94%"></stop>
            <stop stop-color="#008CD4" stop-opacity="0.956" offset="36.36%"></stop>
            <stop stop-color="#009AD6" stop-opacity="0.9797" offset="51.71%"></stop>
            <stop stop-color="#009FD6" offset="64.88%"></stop>
            <stop stop-color="#00A4D8" offset="71.12%"></stop>
            <stop stop-color="#00B4DF" offset="78.92%"></stop>
            <stop stop-color="#00CDEA" offset="87.56%"></stop>
            <stop stop-color="#00F1F9" offset="96.73%"></stop>
            <stop stop-color="#00FFFF" offset="100%"></stop>
        </linearGradient>
        <linearGradient x1="39.3317385%" y1="102.423043%" x2="63.3555772%" y2="-3.92560676%" id="linearGradient-3">
            <stop stop-color="#009FD6" offset="0%"></stop>
            <stop stop-color="#00FFFF" offset="100%"></stop>
        </linearGradient>
        <linearGradient x1="-9.02593175%" y1="82.6474743%" x2="109.850045%" y2="21.9528098%" id="linearGradient-4">
            <stop stop-color="#009FD6" offset="0%"></stop>
            <stop stop-color="#00FFFF" offset="100%"></stop>
        </linearGradient>
        <linearGradient x1="-14.7957299%" y1="53.0654544%" x2="139.576095%" y2="47.3686124%" id="linearGradient-5">
            <stop stop-color="#009FD6" offset="0%"></stop>
            <stop stop-color="#00FFFF" offset="100%"></stop>
        </linearGradient>
    </defs>
    <g id="Page-1" stroke="none" stroke-width="1" fill="none" fill-rule="evenodd">
        <g id="Group-2" fill-rule="nonzero">
            <g id="Oval-2" fill="url(#linearGradient-1)">
                <circle id="Oval" cx="50" cy="50" r="50"></circle>
            </g>
            <circle id="Oval" fill="url(#linearGradient-2)" cx="50" cy="50.4823151" r="39.7106109"></circle>
            <path d="M57.6205788,15.0160772 L57.6688103,15.096463 L57.6848875,15.1286174 L57.733119,15.2090032 L57.7974277,15.3376206 L57.9099678,15.562701 C57.9742765,15.7073955 58.0385852,15.8360129 58.1028939,15.9646302 C58.2154341,16.221865 58.3279743,16.4790997 58.4244373,16.7202572 C58.6334405,17.2186495 58.8102894,17.7009646 58.9871383,18.1832797 C59.3247588,19.14791 59.6141479,20.1286174 59.8553055,21.1093248 C60.3376206,23.0868167 60.6430868,25.1286174 60.6913183,27.2508039 C60.7395498,29.3569132 60.5466238,31.5434084 60,33.681672 C59.4694534,35.8038585 58.6012862,37.8778135 57.4598071,39.7106109 C56.8810289,40.6270096 56.2540193,41.4951768 55.5787781,42.2829582 C54.903537,43.0868167 54.1800643,43.8102894 53.4244373,44.4694534 C52.6688103,45.1446945 51.8971061,45.7395498 51.1093248,46.2861736 C50.3215434,46.8327974 49.5176849,47.3311897 48.6977492,47.7652733 C45.4501608,49.5498392 42.1543408,50.6430868 38.8906752,51.3987138 C38.488746,51.4951768 38.0707395,51.5755627 37.6688103,51.6720257 L37.3633441,51.7363344 C37.3151125,51.7524116 37.266881,51.7524116 37.2186495,51.7684887 L37.0900322,51.8006431 L36.5755627,51.8971061 C35.8842444,52.0257235 35.192926,52.1864952 34.5176849,52.3472669 C33.1511254,52.6848875 31.8327974,53.1028939 30.5305466,53.6173633 C27.9421222,54.6302251 25.5466238,56.0450161 23.5369775,57.9581994 C22.5401929,58.9228296 21.6398714,60 20.8681672,61.1897106 C20.096463,62.3794212 19.4694534,63.6977492 19.0032154,65.0803859 C18.5369775,66.4630225 18.2154341,67.926045 18.0546624,69.4212219 C17.9742765,70.1768489 17.9421222,70.9324759 17.9421222,71.6881029 C17.9421222,72.4437299 17.9903537,73.2154341 18.1028939,73.9710611 C17.8135048,73.2475884 17.6045016,72.5080386 17.4276527,71.7363344 C17.2508039,70.9807074 17.1221865,70.192926 17.0257235,69.4212219 C16.8327974,67.8456592 16.8167203,66.2379421 16.977492,64.6302251 C17.1382637,63.022508 17.5080386,61.3987138 18.0707395,59.8231511 C18.6334405,58.2475884 19.4051447,56.7363344 20.3376206,55.3054662 C22.2186495,52.4598071 24.7427653,50.0482315 27.5401929,48.1350482 C28.9389068,47.170418 30.4019293,46.3022508 31.8971061,45.5305466 C32.6527331,45.1446945 33.4083601,44.7909968 34.1639871,44.437299 L34.7427653,44.1800643 L35.2572347,43.9549839 C35.5787781,43.8102894 35.9003215,43.6655949 36.221865,43.5048232 C38.778135,42.2990354 41.1254019,40.8681672 42.9742765,39.2282958 C43.4405145,38.8263666 43.8585209,38.392283 44.2604502,37.9742765 C44.6463023,37.5401929 45,37.1061093 45.3054662,36.6720257 C45.6109325,36.221865 45.8842444,35.7877814 46.1093248,35.3376206 C46.3344051,34.8874598 46.511254,34.4533762 46.6559486,34.0032154 C46.9292605,33.1189711 47.0418006,32.2508039 47.0418006,31.3504823 C47.0257235,30.4662379 46.8971061,29.5498392 46.6398714,28.6012862 C46.3826367,27.6688103 45.9967846,26.7041801 45.5305466,25.7717042 C45.2893891,25.3054662 45.0321543,24.8392283 44.7427653,24.4051447 C44.5980707,24.1961415 44.4533762,23.9871383 44.3247588,23.7942122 C44.2604502,23.6977492 44.1800643,23.6173633 44.1157556,23.5369775 C44.0836013,23.5048232 44.0514469,23.4565916 44.0192926,23.4405145 C44.0032154,23.4244373 44.0032154,23.4244373 43.9871383,23.4083601 L43.9710611,23.4083601 C43.9710611,23.4083601 43.9710611,23.4244373 43.9710611,23.4244373 L43.9710611,23.4405145 L44.0032154,23.488746 L57.6205788,15.0160772 Z" id="Path" fill="url(#linearGradient-3)"></path>
            <path d="M90.6752412,31.9935691 L90.6752412,32.0900322 L90.6752412,32.1382637 L90.6752412,32.2347267 L90.659164,32.3794212 L90.6430868,32.6366559 C90.6270096,32.7974277 90.6109325,32.9581994 90.5948553,33.1189711 C90.562701,33.4244373 90.5144695,33.7299035 90.4662379,34.0192926 C90.3697749,34.5980707 90.2733119,35.1607717 90.1607717,35.7234727 C89.9356913,36.8327974 89.6623794,37.9099678 89.3569132,38.9871383 C88.7299035,41.1254019 87.926045,43.2154341 86.9292605,45.2411576 C85.9324759,47.266881 84.7266881,49.2122186 83.3118971,51.0450161 C81.8971061,52.8617363 80.2572347,54.5337621 78.4405145,55.9807074 C77.5401929,56.7041801 76.5755627,57.3633441 75.5948553,57.9581994 C75.1125402,58.2636656 74.5980707,58.5369775 74.0996785,58.8102894 C73.585209,59.0675241 73.0868167,59.3247588 72.5723473,59.5498392 C72.0578778,59.7909968 71.5434084,59.9839228 71.0128617,60.192926 L70.2250804,60.4823151 L69.8392283,60.6270096 L69.437299,60.755627 C68.392283,61.0932476 67.3151125,61.3504823 66.2700965,61.5755627 C64.14791,61.9935691 62.0578778,62.2025723 60,62.2508039 C57.9421222,62.2990354 55.9324759,62.170418 53.9549839,61.9292605 C53.4726688,61.8649518 52.9742765,61.8006431 52.4919614,61.7363344 L51.0450161,61.4951768 L49.7909968,61.2540193 L48.5369775,61.0450161 C46.8649518,60.7877814 45.192926,60.6270096 43.5048232,60.562701 C40.1446945,60.4340836 36.7845659,60.755627 33.585209,61.7363344 C31.9935691,62.2347267 30.4180064,62.8778135 28.9549839,63.7138264 C27.4758842,64.5498392 26.0771704,65.562701 24.8231511,66.7524116 C23.5530547,67.9421222 22.4115756,69.2926045 21.4308682,70.7717042 C20.9485531,71.511254 20.4983923,72.2829582 20.096463,73.0868167 C19.6945338,73.8906752 19.340836,74.7266881 19.0675241,75.5948553 C19.1639871,74.6945338 19.3569132,73.7942122 19.5980707,72.9099678 C19.8392283,72.0257235 20.1446945,71.1414791 20.4983923,70.2893891 C21.2057878,68.5691318 22.1221865,66.9131833 23.2315113,65.3697749 C24.340836,63.8263666 25.6430868,62.3954984 27.1221865,61.1414791 C28.585209,59.8713826 30.2250804,58.778135 31.9453376,57.8456592 C35.4019293,55.9967846 39.2282958,54.8392283 43.0868167,54.2122186 C45.0160772,53.9067524 46.9614148,53.7138264 48.9067524,53.6173633 C49.3890675,53.6012862 49.8713826,53.585209 50.3697749,53.5691318 L51.8167203,53.5530547 L53.0707395,53.5369775 C53.488746,53.5209003 53.9067524,53.5048232 54.3086817,53.488746 C55.9485531,53.392283 57.5723473,53.1993569 59.0996785,52.8938907 C60.6430868,52.5884244 62.1061093,52.1543408 63.488746,51.607717 C64.1639871,51.318328 64.8392283,51.0289389 65.4501608,50.6913183 L65.6913183,50.562701 L65.9163987,50.4340836 L66.3665595,50.1768489 C66.6559486,49.9839228 66.9614148,49.807074 67.2347267,49.6141479 C67.5241158,49.4212219 67.7813505,49.2122186 68.0546624,49.0032154 C68.3118971,48.778135 68.5691318,48.585209 68.8263666,48.3440514 C69.3247588,47.8938907 69.7909968,47.4276527 70.2090032,46.9292605 C71.9292605,44.9517685 73.1189711,42.5401929 73.8585209,39.903537 C74.2282958,38.585209 74.4855305,37.2025723 74.6302251,35.8038585 C74.6945338,35.1125402 74.7427653,34.4051447 74.7588424,33.7299035 C74.7588424,33.392283 74.7588424,33.0546624 74.7427653,32.733119 C74.7427653,32.5723473 74.7266881,32.4115756 74.7106109,32.2829582 C74.7106109,32.2186495 74.6945338,32.1382637 74.6945338,32.0900322 L74.6784566,32.0096463 L74.6784566,31.9935691 C74.6784566,31.9935691 74.6784566,31.9935691 74.6784566,31.9935691 L74.6784566,31.9935691 L74.6784566,32.0418006 L90.6752412,32.0418006 L90.6752412,31.9935691 Z" id="Path" fill="url(#linearGradient-4)"></path>
            <path d="M64.2926045,73.5691318 L64.244373,73.6334405 L64.2282958,73.6655949 L64.1800643,73.7299035 L64.1157556,73.8263666 L64.0032154,73.9710611 C63.9389068,74.0675241 63.8745981,74.1318328 63.7942122,74.2122186 C63.6655949,74.3729904 63.5369775,74.5016077 63.4244373,74.6302251 C63.1832797,74.903537 62.9421222,75.1446945 62.7009646,75.3697749 C62.2186495,75.8360129 61.7363344,76.2700965 61.221865,76.6720257 C60.2250804,77.4919614 59.1639871,78.2154341 58.0385852,78.8424437 C56.9131833,79.4694534 55.7234727,80.0160772 54.5016077,80.4501608 C53.2797428,80.8681672 51.9935691,81.1736334 50.7234727,81.3504823 C50.0803859,81.4308682 49.437299,81.4790997 48.8102894,81.511254 C48.1832797,81.5273312 47.5401929,81.511254 46.9292605,81.4630225 C45.6913183,81.3665595 44.4855305,81.1575563 43.3601286,80.85209 C42.2347267,80.5466238 41.1575563,80.1446945 40.1607717,79.6945338 C39.1639871,79.2282958 38.2315113,78.7138264 37.3472669,78.1511254 C37.1221865,78.0064309 36.9131833,77.8617363 36.7041801,77.7170418 L36.5434084,77.6045016 L36.511254,77.5723473 L36.4790997,77.5562701 L36.414791,77.5080386 L36.1897106,77.3311897 C35.8842444,77.0900322 35.5787781,76.8649518 35.2733119,76.6559486 C34.6463023,76.221865 34.0032154,75.8038585 33.3440514,75.4501608 C32.0257235,74.7266881 30.6270096,74.1800643 29.14791,73.9228296 C27.6688103,73.6655949 26.1093248,73.7138264 24.5498392,74.1800643 C23.778135,74.4051447 23.0064309,74.7427653 22.2829582,75.1607717 C21.5594855,75.5948553 20.85209,76.1093248 20.2411576,76.7363344 C20.562701,75.9003215 21.0289389,75.1286174 21.5916399,74.3890675 C22.1543408,73.6495177 22.7974277,72.9581994 23.5530547,72.3472669 C25.0321543,71.1254019 26.8971061,70.2250804 28.8906752,69.7588424 C30.8842444,69.2765273 32.9742765,69.2122186 35,69.4051447 C36.0128617,69.5016077 37.0257235,69.6623794 38.0064309,69.8713826 C38.5048232,69.9839228 38.9871383,70.096463 39.4694534,70.2250804 L39.8392283,70.3215434 L39.9356913,70.3536977 L39.9839228,70.3697749 L40.0160772,70.3697749 L40.1446945,70.4019293 C40.3215434,70.4340836 40.4983923,70.4823151 40.6752412,70.5144695 C42.1061093,70.7877814 43.4726688,70.85209 44.6463023,70.659164 C45.8360129,70.4823151 46.8167203,70.0803859 47.6205788,69.5337621 C48.4244373,68.9871383 49.0675241,68.2958199 49.5980707,67.4919614 C49.8713826,67.0900322 50.1125402,66.6559486 50.3054662,66.221865 C50.4019293,65.9967846 50.4823151,65.7877814 50.5466238,65.5787781 C50.5787781,65.4823151 50.6109325,65.3697749 50.6109325,65.2893891 C50.6109325,65.2411576 50.6270096,65.2090032 50.6109325,65.1768489 C50.6109325,65.1607717 50.5948553,65.1607717 50.5948553,65.1446945 C50.5948553,65.1446945 50.5787781,65.1446945 50.5787781,65.1446945 L50.562701,65.1607717 C50.562701,65.1607717 50.5466238,65.1768489 50.5466238,65.192926 L50.5305466,65.2090032 L50.4983923,65.2572347 L64.2926045,73.5691318 Z" id="Path" fill="url(#linearGradient-5)"></path>
        </g>
    </g>
</svg>