<?xml version="1.0" encoding="UTF-8"?>
<svg width="100px" height="100px" viewBox="0 0 100 100" version="1.1" xmlns="http://www.w3.org/2000/svg" xmlns:xlink="http://www.w3.org/1999/xlink">
    <!-- Generator: Sketch 53.2 (72643) - https://sketchapp.com -->
    <title>powerAir</title>
    <desc>Created with Sketch.</desc>
    <defs>
        <linearGradient x1="82.4189389%" y1="99.4868489%" x2="2.37782958%" y2="-22.6942765%" id="linearGradient-1">
            <stop stop-color="#97AEB8" stop-opacity="0.9" offset="0%"></stop>
            <stop stop-color="#A0B5BE" stop-opacity="0.902" offset="3.891212%"></stop>
            <stop stop-color="#B7C7CD" stop-opacity="0.9086" offset="16.49%"></stop>
            <stop stop-color="#C5D2D6" stop-opacity="0.9147" offset="28.31%"></stop>
            <stop stop-color="#CAD6D9" stop-opacity="0.92" offset="38.45%"></stop>
            <stop stop-color="#D6DFE2" stop-opacity="0.9371" offset="48.66%"></stop>
            <stop stop-color="#FFFFFF" offset="86.15%"></stop>
        </linearGradient>
        <linearGradient x1="10.7596559%" y1="-3.76346154%" x2="98.9818421%" y2="117.110344%" id="linearGradient-2">
            <stop stop-color="#97AEB8" stop-opacity="0.9" offset="0%"></stop>
            <stop stop-color="#CAD6D9" stop-opacity="0.92" offset="62.88%"></stop>
            <stop stop-color="#D3DDDF" stop-opacity="0.9416" offset="72.9%"></stop>
            <stop stop-color="#EBF0F1" stop-opacity="0.9767" offset="89.18%"></stop>
            <stop stop-color="#FFFFFF" offset="100%"></stop>
        </linearGradient>
        <linearGradient x1="69.7768533%" y1="57.5026843%" x2="27.6708739%" y2="46.1133792%" id="linearGradient-3">
            <stop stop-color="#CAD6D9" stop-opacity="0.9" offset="0%"></stop>
            <stop stop-color="#CCD8DB" stop-opacity="0.9018" offset="1.772523%"></stop>
            <stop stop-color="#E3E9EB" stop-opacity="0.9214" offset="21.41%"></stop>
            <stop stop-color="#F3F5F6" stop-opacity="0.9428" offset="42.79%"></stop>
            <stop stop-color="#FCFDFD" stop-opacity="0.967" offset="66.98%"></stop>
            <stop stop-color="#FFFFFF" offset="100%"></stop>
        </linearGradient>
        <linearGradient x1="71.2746919%" y1="58.3123827%" x2="29.0952198%" y2="45.5268445%" id="linearGradient-4">
            <stop stop-color="#CAD6D9" offset="0%"></stop>
            <stop stop-color="#D1DBDE" offset="7.673597%"></stop>
            <stop stop-color="#EAEFF0" offset="42.84%"></stop>
            <stop stop-color="#FAFBFB" offset="74.66%"></stop>
            <stop stop-color="#FFFFFF" offset="100%"></stop>
        </linearGradient>
        <linearGradient x1="69.1082146%" y1="56.6709982%" x2="30.4484518%" y2="45.3506876%" id="linearGradient-5">
            <stop stop-color="#FFFFFF" stop-opacity="0.6" offset="0%"></stop>
            <stop stop-color="#FFFFFF" stop-opacity="0.6518" offset="12.96%"></stop>
            <stop stop-color="#FFFFFF" offset="100%"></stop>
        </linearGradient>
    </defs>
    <g id="Page-1" stroke="none" stroke-width="1" fill="none" fill-rule="evenodd">
        <g id="powerAir" fill-rule="nonzero">
            <circle id="Oval" fill="#FFFFFF" opacity="0.61" cx="50" cy="50" r="50"></circle>
            <circle id="Oval" fill="url(#linearGradient-1)" cx="50" cy="50" r="50"></circle>
            <circle id="Oval" fill="url(#linearGradient-2)" cx="50.9646302" cy="50" r="39.7106109"></circle>
            <path d="M7.07395498,60.2250804 C6.92926045,57.4758842 18.9871383,46.5916399 20.9324759,44.7106109 C21.6398714,44.0192926 22.4437299,43.2958199 23.4244373,43.1993569 C24.8713826,43.0546624 26.0610932,44.2604502 26.9935691,45.3697749 C29.2122186,47.9903537 31.414791,50.5948553 33.6334405,53.2154341 C34.1639871,53.8424437 34.7266881,54.5016077 35.4983923,54.7588424 C36.8810289,55.2411576 38.3279743,54.340836 39.5176849,53.488746 C42.2186495,51.5594855 44.9196141,49.6302251 47.6205788,47.7009646 C48.4244373,47.1221865 49.3247588,46.5273312 50.3054662,46.6720257 C51.1414791,46.7845659 51.8006431,47.4276527 52.3954984,48.0385852 C53.9067524,49.5819936 55.4180064,51.1254019 56.9292605,52.6688103 C57.5723473,53.3279743 58.2315113,54.0032154 59.0836013,54.3729904 C61.1093248,55.2572347 63.4405145,54.0996785 65.1607717,52.733119 C66.8810289,51.3665595 68.5369775,49.6623794 70.7073955,49.2282958 C74.437299,48.5048232 79.7588424,54.5337621 82.1382637,57.4758842" id="Path" fill="url(#linearGradient-3)"></path>
            <path d="M40.6752412,41.1093248 C40.5787781,39.1157556 49.2765273,31.2540193 50.6913183,29.903537 C51.2057878,29.4051447 51.7845659,28.8745981 52.4919614,28.8102894 C53.5369775,28.6977492 54.3890675,29.5819936 55.0643087,30.3858521 C56.6559486,32.266881 58.2636656,34.1639871 59.8553055,36.0450161 C60.2411576,36.4951768 60.6430868,36.9614148 61.2057878,37.170418 C62.2025723,37.5241158 63.2475884,36.8649518 64.1157556,36.2540193 C66.0610932,34.8553055 68.022508,33.4726688 69.9678457,32.073955 C70.5466238,31.6559486 71.2057878,31.221865 71.9131833,31.3344051 C72.5241158,31.414791 72.9903537,31.8810289 73.4244373,32.3151125 C74.5176849,33.4244373 75.6109325,34.5498392 76.7041801,35.659164 C77.170418,36.1414791 77.6527331,36.6237942 78.2636656,36.8810289 C79.7266881,37.5241158 81.414791,36.6881029 82.6527331,35.6913183 C83.9067524,34.6945338 85.1607717,33.4244373 86.7363344,33.1189711 C86.7363344,33.1189711 87.7652733,34.437299 89.0675241,39.1157556" id="Path" fill="url(#linearGradient-4)"></path>
            <path d="M46.6237942,77.3633441 C46.5434084,75.8681672 53.1189711,69.9356913 54.1800643,68.9067524 C54.5659164,68.5369775 55,68.1350482 55.5305466,68.0868167 C56.318328,68.0064309 56.9614148,68.6655949 57.4758842,69.2765273 C58.681672,70.7073955 59.8874598,72.1221865 61.0932476,73.5530547 C61.3826367,73.8906752 61.6881029,74.244373 62.1061093,74.3890675 C62.8617363,74.6463023 63.6495177,74.1639871 64.2926045,73.6977492 C65.7717042,72.6527331 67.2347267,71.5916399 68.7138264,70.5466238 C69.14791,70.2411576 69.6463023,69.903537 70.1768489,69.9839228 C70.6270096,70.0482315 70.9967846,70.4019293 71.318328,70.7234727 C72.1382637,71.5594855 72.9581994,72.4115756 73.7942122,73.2475884 C74.14791,73.6012862 74.5016077,73.9710611 74.9678457,74.1800643 C76.0771704,74.6623794 77.3472669,74.0353698 78.2797428,73.2797428 C79.2122186,72.5241158 80.5466238,71.221865 84.4051447,71.3826367 C84.4051447,71.3826367 84.0836013,72.6688103 81.1897106,75.8842444" id="Path" fill="url(#linearGradient-5)"></path>
        </g>
    </g>
</svg>