<?xml version="1.0" encoding="UTF-8"?>
<svg width="100px" height="100px" viewBox="0 0 100 100" version="1.1" xmlns="http://www.w3.org/2000/svg" xmlns:xlink="http://www.w3.org/1999/xlink">
    <!-- Generator: Sketch 53.2 (72643) - https://sketchapp.com -->
    <title>skillLuck</title>
    <desc>Created with Sketch.</desc>
    <defs>
        <linearGradient x1="75.0041801%" y1="93.3084887%" x2="24.9958199%" y2="6.69149518%" id="linearGradient-1">
            <stop stop-color="#F7931E" stop-opacity="0.9" offset="0%"></stop>
            <stop stop-color="#F89D28" stop-opacity="0.9043" offset="9.260853%"></stop>
            <stop stop-color="#FAAB36" stop-opacity="0.9127" offset="27.47%"></stop>
            <stop stop-color="#FBB03B" stop-opacity="0.92" offset="43.13%"></stop>
            <stop stop-color="#FDCE25" stop-opacity="0.92" offset="57.68%"></stop>
            <stop stop-color="#FEE911" stop-opacity="0.92" offset="74.16%"></stop>
            <stop stop-color="#FFF904" stop-opacity="0.92" offset="88.81%"></stop>
            <stop stop-color="#FFFF00" stop-opacity="0.92" offset="100%"></stop>
        </linearGradient>
        <linearGradient x1="17.8598785%" y1="11.6968826%" x2="82.1401215%" y2="88.3031174%" id="linearGradient-2">
            <stop stop-color="#FBB03B" stop-opacity="0.92" offset="0%"></stop>
            <stop stop-color="#FDD71E" stop-opacity="0.9526" offset="40.73%"></stop>
            <stop stop-color="#FEF408" stop-opacity="0.9828" offset="78.52%"></stop>
            <stop stop-color="#FFFF00" offset="100%"></stop>
        </linearGradient>
    </defs>
    <g id="Page-1" stroke="none" stroke-width="1" fill="none" fill-rule="evenodd">
        <g id="skillLuck" fill-rule="nonzero">
            <g id="Layer_1">
                <circle id="Oval" fill="url(#linearGradient-1)" cx="50" cy="50" r="50"></circle>
                <circle id="Oval" fill="url(#linearGradient-2)" cx="50.0803859" cy="50.8842444" r="39.7106109"></circle>
            </g>
            <g id="face" transform="translate(17.845659, 30.707395)" fill="#F15A24">
                <g id="Group" opacity="0.46">
                    <circle id="Oval" transform="translate(57.813495, 23.095023) rotate(-35.521026) translate(-57.813495, -23.095023) " cx="57.8134952" cy="23.0950225" r="3.47265876"></circle>
                    <path d="M24.807074,23.4405145 C20.3536977,22.3794212 15.8681672,25.1286174 14.807074,29.5819936 L21.3665595,32.6688103 L20.7395498,35.0643087 C19.5659164,35.1446945 18.6334405,36.1093248 18.6334405,37.3151125 C18.6334405,38.5530547 19.6463023,39.5659164 20.8842444,39.5659164 C22.1221865,39.5659164 23.1350482,38.5530547 23.1350482,37.3151125 C23.1350482,36.5755627 22.7813505,35.9163987 22.2347267,35.5144695 L22.2990354,35.5144695 L22.9421222,33.0707395 L30.9646302,33.4405145 C32.0096463,28.9710611 29.2604502,24.5016077 24.807074,23.4405145 Z" id="Path"></path>
                    <path d="M57.1221865,9.16398714 C57.1221865,9.16398714 64.7106109,9.27652733 66.1414791,15.4019293 C66.1414791,15.4019293 67.2186495,7.26688103 57.1221865,9.16398714 Z" id="Path"></path>
                    <path d="M37.9581994,29.2604502 C37.6688103,29.3247588 37.4919614,29.6141479 37.5723473,29.903537 C37.6366559,30.192926 37.926045,30.3697749 38.2154341,30.2893891 C38.5048232,30.2250804 38.681672,29.9356913 38.6012862,29.6463023 C38.5369775,29.3569132 38.2475884,29.1961415 37.9581994,29.2604502 Z" id="Path"></path>
                    <path d="M41.8327974,29.2765273 C41.5434084,29.340836 41.3665595,29.6302251 41.4469453,29.9196141 C41.5273312,30.2090032 41.8006431,30.3858521 42.0900322,30.3054662 C42.3794212,30.2411576 42.5562701,29.9517685 42.4758842,29.6623794 C42.4115756,29.3890675 42.1221865,29.2122186 41.8327974,29.2765273 Z" id="Path"></path>
                    <path d="M39.6463023,32.2186495 C39.3569132,32.2829582 39.1800643,32.5723473 39.2604502,32.8617363 C39.3247588,33.1511254 39.6141479,33.3279743 39.903537,33.2475884 C40.192926,33.1832797 40.3697749,32.8938907 40.2893891,32.6045016 C40.2090032,32.3151125 39.9356913,32.1543408 39.6463023,32.2186495 Z" id="Path"></path>
                    <path d="M9.85530547,21.7845659 C10.1446945,21.8649518 10.4340836,21.6881029 10.5144695,21.3987138 C10.5948553,21.1093248 10.4180064,20.8199357 10.1286174,20.7395498 C9.8392283,20.659164 9.54983923,20.8360129 9.46945338,21.1254019 C9.40514469,21.414791 9.58199357,21.7041801 9.85530547,21.7845659 Z" id="Path"></path>
                    <circle id="Oval" transform="translate(13.391062, 23.101045) rotate(-1.318779) translate(-13.391062, -23.101045) " cx="13.391062" cy="23.1010454" r="1"></circle>
                    <circle id="Oval" cx="10.0803859" cy="24.6784566" r="1"></circle>
                    <circle id="Oval" transform="translate(4.948492, 14.119135) rotate(-35.521026) translate(-4.948492, -14.119135) " cx="4.94849196" cy="14.119135" r="3.47265876"></circle>
                    <path d="M1.1414791,3.1511254 C1.1414791,3.1511254 7.54019293,-0.916398714 12.0900322,3.39228296 C12.0900322,3.39228296 8.52090032,-3.98713826 1.1414791,3.1511254 Z" id="Path"></path>
                    <path d="M19.8713826,42.5401929 C19.7427653,42.4758842 19.6141479,42.4115756 19.5016077,42.3311897 C19.3890675,42.266881 19.2604502,42.1864952 19.14791,42.1221865 C19.0192926,42.0578778 18.9228296,41.977492 18.8102894,41.9131833 C18.5691318,41.7845659 18.3762058,41.6237942 18.1511254,41.4951768 C17.733119,41.1897106 17.3311897,40.8842444 16.9453376,40.5144695 C16.7363344,40.3376206 16.5594855,40.1286174 16.3665595,39.9196141 C16.1736334,39.7106109 15.9807074,39.4855305 15.7717042,39.2282958 C15.6752412,39.5498392 15.6913183,39.8874598 15.7395498,40.2090032 C15.8038585,40.5305466 15.9003215,40.85209 16.0450161,41.1575563 C16.3344051,41.7524116 16.8006431,42.2829582 17.3472669,42.6688103 C17.6366559,42.8456592 17.9099678,43.022508 18.2315113,43.1350482 C18.5369775,43.2636656 18.8585209,43.3440514 19.1800643,43.392283 C19.340836,43.4244373 19.5016077,43.4244373 19.6623794,43.4405145 C19.8231511,43.4405145 19.9839228,43.4405145 20.1446945,43.4405145 C20.4662379,43.4083601 20.7877814,43.3440514 21.0932476,43.2315113 C20.8199357,43.022508 20.5466238,42.8938907 20.2893891,42.7491961 C20.1286174,42.6848875 20,42.6045016 19.8713826,42.5401929 Z" id="Path"></path>
                </g>
                <g id="Group">
                    <circle id="Oval" transform="translate(57.813495, 23.095023) rotate(-35.521026) translate(-57.813495, -23.095023) " cx="57.8134952" cy="23.0950225" r="3.47265876"></circle>
                    <path d="M24.807074,23.4405145 C20.3536977,22.3794212 15.8681672,25.1286174 14.807074,29.5819936 L21.3665595,32.6688103 L20.7395498,35.0643087 C19.5659164,35.1446945 18.6334405,36.1093248 18.6334405,37.3151125 C18.6334405,38.5530547 19.6463023,39.5659164 20.8842444,39.5659164 C22.1221865,39.5659164 23.1350482,38.5530547 23.1350482,37.3151125 C23.1350482,36.5755627 22.7813505,35.9163987 22.2347267,35.5144695 L22.2990354,35.5144695 L22.9421222,33.0707395 L30.9646302,33.4405145 C32.0096463,28.9710611 29.2604502,24.5016077 24.807074,23.4405145 Z" id="Path"></path>
                    <path d="M57.1221865,9.16398714 C57.1221865,9.16398714 64.7106109,9.27652733 66.1414791,15.4019293 C66.1414791,15.4019293 67.2186495,7.26688103 57.1221865,9.16398714 Z" id="Path"></path>
                    <path d="M37.9581994,29.2604502 C37.6688103,29.3247588 37.4919614,29.6141479 37.5723473,29.903537 C37.6366559,30.192926 37.926045,30.3697749 38.2154341,30.2893891 C38.5048232,30.2250804 38.681672,29.9356913 38.6012862,29.6463023 C38.5369775,29.3569132 38.2475884,29.1961415 37.9581994,29.2604502 Z" id="Path"></path>
                    <path d="M41.8327974,29.2765273 C41.5434084,29.340836 41.3665595,29.6302251 41.4469453,29.9196141 C41.5273312,30.2090032 41.8006431,30.3858521 42.0900322,30.3054662 C42.3794212,30.2411576 42.5562701,29.9517685 42.4758842,29.6623794 C42.4115756,29.3890675 42.1221865,29.2122186 41.8327974,29.2765273 Z" id="Path"></path>
                    <path d="M39.6463023,32.2186495 C39.3569132,32.2829582 39.1800643,32.5723473 39.2604502,32.8617363 C39.3247588,33.1511254 39.6141479,33.3279743 39.903537,33.2475884 C40.192926,33.1832797 40.3697749,32.8938907 40.2893891,32.6045016 C40.2090032,32.3151125 39.9356913,32.1543408 39.6463023,32.2186495 Z" id="Path"></path>
                    <path d="M9.85530547,21.7845659 C10.1446945,21.8649518 10.4340836,21.6881029 10.5144695,21.3987138 C10.5948553,21.1093248 10.4180064,20.8199357 10.1286174,20.7395498 C9.8392283,20.659164 9.54983923,20.8360129 9.46945338,21.1254019 C9.40514469,21.414791 9.58199357,21.7041801 9.85530547,21.7845659 Z" id="Path"></path>
                    <circle id="Oval" transform="translate(13.391062, 23.101045) rotate(-1.318779) translate(-13.391062, -23.101045) " cx="13.391062" cy="23.1010454" r="1"></circle>
                    <circle id="Oval" cx="10.0803859" cy="24.6784566" r="1"></circle>
                    <circle id="Oval" transform="translate(4.948492, 14.119135) rotate(-35.521026) translate(-4.948492, -14.119135) " cx="4.94849196" cy="14.119135" r="3.47265876"></circle>
                    <path d="M1.1414791,3.1511254 C1.1414791,3.1511254 7.54019293,-0.916398714 12.0900322,3.39228296 C12.0900322,3.39228296 8.52090032,-3.98713826 1.1414791,3.1511254 Z" id="Path"></path>
                    <path d="M19.8713826,42.5401929 C19.7427653,42.4758842 19.6141479,42.4115756 19.5016077,42.3311897 C19.3890675,42.266881 19.2604502,42.1864952 19.14791,42.1221865 C19.0192926,42.0578778 18.9228296,41.977492 18.8102894,41.9131833 C18.5691318,41.7845659 18.3762058,41.6237942 18.1511254,41.4951768 C17.733119,41.1897106 17.3311897,40.8842444 16.9453376,40.5144695 C16.7363344,40.3376206 16.5594855,40.1286174 16.3665595,39.9196141 C16.1736334,39.7106109 15.9807074,39.4855305 15.7717042,39.2282958 C15.6752412,39.5498392 15.6913183,39.8874598 15.7395498,40.2090032 C15.8038585,40.5305466 15.9003215,40.85209 16.0450161,41.1575563 C16.3344051,41.7524116 16.8006431,42.2829582 17.3472669,42.6688103 C17.6366559,42.8456592 17.9099678,43.022508 18.2315113,43.1350482 C18.5369775,43.2636656 18.8585209,43.3440514 19.1800643,43.392283 C19.340836,43.4244373 19.5016077,43.4244373 19.6623794,43.4405145 C19.8231511,43.4405145 19.9839228,43.4405145 20.1446945,43.4405145 C20.4662379,43.4083601 20.7877814,43.3440514 21.0932476,43.2315113 C20.8199357,43.022508 20.5466238,42.8938907 20.2893891,42.7491961 C20.1286174,42.6848875 20,42.6045016 19.8713826,42.5401929 Z" id="Path"></path>
                </g>
            </g>
        </g>
    </g>
</svg>