<?xml version="1.0" encoding="UTF-8"?>
<svg width="100px" height="100px" viewBox="0 0 100 100" version="1.1" xmlns="http://www.w3.org/2000/svg" xmlns:xlink="http://www.w3.org/1999/xlink">
    <!-- Generator: Sketch 53.2 (72643) - https://sketchapp.com -->
    <title>skillCharm</title>
    <desc>Created with Sketch.</desc>
    <defs>
        <linearGradient x1="75.0041801%" y1="93.3084887%" x2="24.9958199%" y2="6.69149518%" id="linearGradient-1">
            <stop stop-color="#B500B1" stop-opacity="0.9" offset="0%"></stop>
            <stop stop-color="#B800B4" stop-opacity="0.9005" offset="1.045237%"></stop>
            <stop stop-color="#D700D5" stop-opacity="0.9058" offset="13.12%"></stop>
            <stop stop-color="#ED00EC" stop-opacity="0.911" offset="24.72%"></stop>
            <stop stop-color="#FA00FA" stop-opacity="0.9159" offset="35.57%"></stop>
            <stop stop-color="#FF00FF" stop-opacity="0.92" offset="44.87%"></stop>
            <stop stop-color="#FD55FF" stop-opacity="0.92" offset="69.98%"></stop>
            <stop stop-color="#FC94FF" stop-opacity="0.92" offset="90.38%"></stop>
            <stop stop-color="#FBACFF" stop-opacity="0.92" offset="100%"></stop>
        </linearGradient>
        <linearGradient x1="17.8598785%" y1="11.6968826%" x2="82.1401215%" y2="88.3031174%" id="linearGradient-2">
            <stop stop-color="#FF00FF" stop-opacity="0.92" offset="0%"></stop>
            <stop stop-color="#FE27FF" stop-opacity="0.9359" offset="18.59%"></stop>
            <stop stop-color="#FD50FF" stop-opacity="0.9557" offset="41.69%"></stop>
            <stop stop-color="#FC6EFF" stop-opacity="0.9737" offset="62.66%"></stop>
            <stop stop-color="#FB80FF" stop-opacity="0.9891" offset="80.57%"></stop>
            <stop stop-color="#FB87FF" offset="93.33%"></stop>
        </linearGradient>
    </defs>
    <g id="Page-1" stroke="none" stroke-width="1" fill="none" fill-rule="evenodd">
        <g id="skillCharm" fill-rule="nonzero">
            <g id="Layer_2">
                <circle id="Oval" fill="url(#linearGradient-1)" cx="50" cy="50" r="50"></circle>
                <circle id="Oval" fill="url(#linearGradient-2)" cx="50.0803859" cy="50.8842444" r="39.7106109"></circle>
            </g>
            <g id="Layer_1" transform="translate(16.237942, 36.495177)" fill="#910091">
                <g id="Group">
                    <path d="M16.1736334,31.1897106 C17.8456592,40.2411576 27.5723473,37.0900322 27.5723473,37.0900322 C18.585209,38.2315113 16.1736334,31.1897106 16.1736334,31.1897106 Z" id="Path"></path>
                    <path d="M50.0643087,22.9581994 C52.170418,22.7974277 53.7459807,23.2958199 54.903537,24.0675241 C41.977492,39.4051447 27.733119,31.7041801 24.0353698,29.2765273 L24.5498392,27.266881 L32.5723473,27.6366559 C33.6334405,23.1832797 30.8842444,18.6977492 26.4308682,17.6366559 C21.977492,16.5755627 17.4919614,19.3247588 16.4308682,23.778135 L22.9903537,26.8649518 L22.5241158,28.681672 C6.55948553,30.3697749 4.40514469,15.4501608 4.40514469,15.4501608 C3.8585209,32.073955 22.8778135,30.1286174 22.8778135,30.1286174 C22.8778135,30.1286174 42.0418006,44.2282958 54.9678457,24.0836013 C57.5241158,25.8038585 58.0385852,28.8102894 58.0385852,28.8102894 C57.6688103,20.7234727 50.0643087,22.9581994 50.0643087,22.9581994 Z" id="Path"></path>
                    <path d="M56.8327974,10.9003215 C56.8327974,10.9003215 64.3729904,10.0643087 66.5594901,15.9646302 C66.5594855,15.9485531 66.607717,7.74919614 56.8327974,10.9003215 Z" id="Path"></path>
                    <path d="M39.8231511,24.5176849 C40.1125402,24.4533762 40.2893891,24.1639871 40.2090032,23.8745981 C40.1446945,23.585209 39.8553055,23.4083601 39.5659164,23.488746 C39.2765273,23.5691318 39.0996785,23.8424437 39.1800643,24.1318328 C39.244373,24.4051447 39.5337621,24.5819936 39.8231511,24.5176849 Z" id="Path"></path>
                    <path d="M43.681672,24.5337621 C43.9710611,24.4694534 44.14791,24.1800643 44.0675241,23.8906752 C44.0032154,23.6012862 43.7138264,23.4244373 43.4244373,23.5048232 C43.1350482,23.5691318 42.9581994,23.8585209 43.0385852,24.14791 C43.1189711,24.437299 43.4083601,24.5980707 43.681672,24.5337621 Z" id="Path"></path>
                    <path d="M41.511254,27.4758842 C41.8006431,27.4115756 41.977492,27.1221865 41.8971061,26.8327974 C41.8167203,26.5434084 41.5434084,26.3665595 41.2540193,26.4469453 C40.9646302,26.5273312 40.7877814,26.8006431 40.8681672,27.0900322 C40.9324759,27.3633441 41.221865,27.5401929 41.511254,27.4758842 Z" id="Path"></path>
                    <path d="M11.7363344,14.9517685 C11.4469453,14.8713826 11.1575563,15.0482315 11.0771704,15.3376206 C10.9967846,15.6270096 11.1736334,15.9163987 11.4630225,15.9967846 C11.7524116,16.0771704 12.0418006,15.9003215 12.1221865,15.6109325 C12.2025723,15.3215434 12.0257235,15.0321543 11.7363344,14.9517685 Z" id="Path"></path>
                    <circle id="Oval" transform="translate(14.998779, 17.313264) rotate(-1.318779) translate(-14.998779, -17.313264) " cx="14.998779" cy="17.3132641" r="1"></circle>
                    <circle id="Oval" cx="11.6881029" cy="18.8906752" r="1"></circle>
                    <path d="M12.0418006,3.79421222 C12.0418006,3.79421222 9.00321543,-3.82636656 1.12540193,2.78135048 C1.12540193,2.78135048 7.79742765,-0.836012862 12.0418006,3.79421222 Z" id="Path"></path>
                    <path d="M63.5209003,19.6463023 C63.5209003,19.6463023 61.318328,11.7363344 52.7813505,17.4598071 C52.7813505,17.4598071 52.926045,17.3954984 53.1993569,17.3151125 C53.9228296,17.2508039 60.7877814,16.8006431 62.8617363,22.3794212 C62.8617363,22.3794212 62.8938907,17.6848875 58.6655949,16.7524116 C60.4019293,17.0257235 62.1864952,17.8135048 63.5209003,19.6463023 Z" id="Path"></path>
                    <path d="M0.0160771704,11.414791 C4.22829582,7.21864952 10.2733119,10.4983923 10.9003215,10.85209 C11.1093248,11.0450161 11.2057878,11.1575563 11.2057878,11.1575563 C5.85209003,2.39549839 0.546623794,8.64951768 0.546623794,8.64951768 C2.54019293,7.54019293 4.48553055,7.57234727 6.17363344,8.05466238 C1.94533762,7.13826367 0.0160771704,11.414791 0.0160771704,11.414791 Z" id="Path"></path>
                </g>
            </g>
        </g>
    </g>
</svg>