<?xml version="1.0" encoding="UTF-8"?>
<svg width="100px" height="100px" viewBox="0 0 100 100" version="1.1" xmlns="http://www.w3.org/2000/svg" xmlns:xlink="http://www.w3.org/1999/xlink">
    <!-- Generator: Sketch 53.2 (72643) - https://sketchapp.com -->
    <title>skillIntelligence</title>
    <desc>Created with Sketch.</desc>
    <defs>
        <linearGradient x1="86.577283%" y1="97.8829904%" x2="15.8377331%" y2="5.27847267%" id="linearGradient-1">
            <stop stop-color="#2005A2" stop-opacity="0.9" offset="0%"></stop>
            <stop stop-color="#1E05A6" stop-opacity="0.9009" offset="2.066082%"></stop>
            <stop stop-color="#0901E6" stop-opacity="0.9139" offset="33.08%"></stop>
            <stop stop-color="#0000FF" stop-opacity="0.92" offset="47.74%"></stop>
            <stop stop-color="#0053FF" stop-opacity="0.92" offset="76.24%"></stop>
            <stop stop-color="#0095FF" stop-opacity="0.92" offset="100%"></stop>
        </linearGradient>
        <linearGradient x1="-20.4186235%" y1="-34.1032186%" x2="79.5813765%" y2="85.33%" id="linearGradient-2">
            <stop stop-color="#0000FF" stop-opacity="0.92" offset="0%"></stop>
            <stop stop-color="#001AFF" stop-opacity="0.9356" offset="19.52%"></stop>
            <stop stop-color="#005CFF" stop-opacity="0.9688" offset="60.97%"></stop>
            <stop stop-color="#00A0FF" offset="100%"></stop>
        </linearGradient>
    </defs>
    <g id="Page-1" stroke="none" stroke-width="1" fill="none" fill-rule="evenodd">
        <g id="skillIntelligence" fill-rule="nonzero">
            <g id="Layer_1">
                <circle id="Oval" fill="url(#linearGradient-1)" cx="50" cy="50" r="50"></circle>
                <circle id="Oval" fill="url(#linearGradient-2)" cx="50.0803859" cy="50.8842444" r="39.7106109"></circle>
            </g>
            <g id="face" transform="translate(19.131833, 37.299035)" fill="#0D0089">
                <circle id="Oval" cx="56.5273312" cy="16.4951768" r="3.47266881"></circle>
                <path d="M29.6623794,26.8327974 C30.7234727,22.3794212 27.9742765,17.8938907 23.5209003,16.8327974 C19.0675241,15.7717042 14.5819936,18.5209003 13.5209003,22.9742765 L20.8199357,26.414791 L29.6623794,26.8327974 Z" id="Path"></path>
                <polyline id="Path" points="21.0128617 28.9067524 22.266881 24.0836013 20.6430868 23.9389068 19.3890675 28.7620579"></polyline>
                <circle id="Oval" cx="36.8006431" cy="23.1832797" r="1"></circle>
                <circle id="Oval" cx="40.6752412" cy="23.2154341" r="1"></circle>
                <circle id="Oval" cx="38.488746" cy="26.1575563" r="1"></circle>
                <circle id="Oval" cx="8.71382637" cy="14.6784566" r="1"></circle>
                <circle id="Oval" cx="12.1061093" cy="16.511254" r="1"></circle>
                <circle id="Oval" cx="8.79421222" cy="18.0868167" r="1"></circle>
                <circle id="Oval" cx="3.66559486" cy="7.52411576" r="3.47266881"></circle>
                <path d="M0.0643086817,1.20578778 C0.0643086817,1.20578778 7.50803859,-0.257234727 10.1768489,5.41800643 C10.1768489,5.41800643 9.53376206,-2.76527331 0.0643086817,1.20578778 Z" id="Path"></path>
                <path d="M26.4469453,33.1993569 C25.4983923,32.5562701 24.5980707,31.9292605 23.6655949,31.3504823 C22.7491961,30.7717042 21.8327974,30.2250804 20.8842444,29.7749196 C20.7717042,29.7106109 20.6430868,29.6623794 20.5305466,29.6141479 C20.4180064,29.5498392 20.2893891,29.5016077 20.1768489,29.4533762 C19.9356913,29.340836 19.6945338,29.2604502 19.4533762,29.1639871 C18.9710611,28.9871383 18.4726688,28.8424437 17.9581994,28.7299035 C17.4437299,28.6173633 16.9292605,28.5530547 16.3826367,28.5209003 C15.8360129,28.488746 15.3054662,28.5048232 14.7106109,28.5369775 C14.9517685,28.392283 15.2090032,28.2315113 15.4662379,28.1189711 C15.5948553,28.0546624 15.7395498,28.0064309 15.8681672,27.9581994 L16.2861736,27.829582 C16.8649518,27.6848875 17.4598071,27.6205788 18.0546624,27.6205788 C18.6495177,27.6366559 19.244373,27.733119 19.8231511,27.8778135 C20.1125402,27.9581994 20.4019293,28.0385852 20.6752412,28.1511254 C20.8199357,28.1993569 20.9485531,28.2636656 21.0932476,28.3118971 C21.221865,28.3762058 21.3665595,28.4244373 21.4951768,28.488746 C22.5562701,29.0032154 23.5209003,29.6784566 24.3569132,30.4662379 C24.7749196,30.8681672 25.1607717,31.2861736 25.5144695,31.7363344 C25.8681672,32.2025723 26.2057878,32.6688103 26.4469453,33.1993569 Z" id="Path"></path>
                <path d="M23.3440514,36.7684887 C22.6366559,36.1254019 21.9453376,35.5787781 21.2379421,35.0482315 C20.5305466,34.5337621 19.8231511,34.0514469 19.0675241,33.6173633 C18.8906752,33.5048232 18.6977492,33.4083601 18.5048232,33.2958199 L18.2315113,33.1350482 C18.1350482,33.0868167 18.0385852,33.0385852 17.9421222,32.9903537 C17.7491961,32.8938907 17.5562701,32.7974277 17.3633441,32.6848875 C17.170418,32.5884244 16.9614148,32.5080386 16.7684887,32.3954984 C16.6720257,32.3472669 16.5755627,32.2990354 16.4630225,32.2508039 L16.1575563,32.1221865 C15.9485531,32.0257235 15.755627,31.9292605 15.5466238,31.8327974 C15.1286174,31.6398714 14.7106109,31.4790997 14.2765273,31.221865 C14.5176849,31.1897106 14.7427653,31.1575563 14.9839228,31.1575563 C15.2250804,31.1414791 15.4662379,31.1254019 15.7073955,31.1414791 C15.9485531,31.1575563 16.1736334,31.1736334 16.414791,31.2057878 C16.5273312,31.221865 16.6559486,31.2379421 16.7684887,31.2540193 C16.8810289,31.2861736 17.0096463,31.3022508 17.1221865,31.3344051 C17.3472669,31.3826367 17.5884244,31.4469453 17.8135048,31.511254 C18.0385852,31.5916399 18.2636656,31.6720257 18.488746,31.7524116 C18.6012862,31.8006431 18.7138264,31.8327974 18.8263666,31.8810289 L19.14791,32.0418006 C19.3569132,32.1543408 19.5819936,32.2508039 19.7909968,32.3794212 C20.6270096,32.8617363 21.3826367,33.5048232 22.0096463,34.2282958 C22.170418,34.4051447 22.3151125,34.5980707 22.4437299,34.807074 C22.5884244,35 22.7009646,35.2090032 22.829582,35.4180064 C23.0546624,35.85209 23.2475884,36.3022508 23.3440514,36.7684887 Z" id="Path"></path>
                <path d="M52.8938907,6.01286174 C54.1639871,5.8681672 55.3697749,5.65916399 56.5594855,5.36977492 C57.1543408,5.22508039 57.733119,5.08038585 58.3279743,4.90353698 C58.9228296,4.74276527 59.5659164,4.5659164 60.2411576,4.50160772 C60.5787781,4.46945338 60.9485531,4.45337621 61.3022508,4.48553055 C61.6559486,4.51768489 62.0257235,4.58199357 62.3794212,4.71061093 C62.733119,4.8392283 63.0868167,5 63.392283,5.24115756 C63.6977492,5.48231511 63.9549839,5.77170418 64.14791,6.07717042 C64.5337621,6.70418006 64.7106109,7.39549839 64.7588424,8.05466238 C64.807074,8.71382637 64.7427653,9.35691318 64.6141479,10 C64.437299,9.38906752 64.2765273,8.77813505 64.0675241,8.21543408 C63.8585209,7.65273312 63.585209,7.13826367 63.2475884,6.75241158 C63.0707395,6.55948553 62.8778135,6.414791 62.6688103,6.28617363 C62.4598071,6.17363344 62.2347267,6.07717042 61.9935691,6.01286174 C61.7524116,5.94855305 61.4951768,5.91639871 61.221865,5.90032154 C60.9485531,5.88424437 60.6913183,5.90032154 60.4019293,5.93247588 C59.8392283,5.99678457 59.2604502,6.12540193 58.6334405,6.23794212 C58.0064309,6.35048232 57.3633441,6.44694534 56.7202572,6.49517685 C55.4180064,6.55948553 54.0996785,6.46302251 52.8938907,6.01286174 Z" id="Path"></path>
            </g>
        </g>
    </g>
</svg>