<svg id="Layer_1" data-name="Layer 1" xmlns="http://www.w3.org/2000/svg" xmlns:xlink="http://www.w3.org/1999/xlink" viewBox="0 0 93 94"><defs><style>.cls-1{fill:#c4c4c4;}.cls-2{fill:none;}.cls-3{fill:#473080;stroke:#382b73;stroke-width:7px;}.cls-4{clip-path:url(#clip-path);}.cls-5{fill:#e43d91;}.cls-6{fill:#ef5a9d;}.cls-13,.cls-7{fill:#fff;}.cls-8{fill:#f4b3cd;}.cls-9{fill:#382b73;}.cls-10{mask:url(#mask);}.cls-11{fill:#bcbec0;}.cls-12{fill:#e6e7e8;}.cls-13{fill-opacity:0.01;}.cls-14{fill:#f8d81c;fill-rule:evenodd;}</style><clipPath id="clip-path"><rect class="cls-2" x="24" y="29.8" width="44" height="44"/></clipPath><mask id="mask" x="26" y="11.8" width="38" height="41.14" maskUnits="userSpaceOnUse"><g id="mask0_2_2268"><rect class="cls-1" x="26" y="11.8" width="38" height="32"/></g></mask></defs><circle class="cls-3" cx="46.5" cy="47.3" r="43"/><g class="cls-4"><path class="cls-5" d="M27.44,37.05H61.81a3.45,3.45,0,0,1,3.44,3.44v4.12a3.45,3.45,0,0,1-3.44,3.44H27.44A3.45,3.45,0,0,1,24,44.61V40.49A3.45,3.45,0,0,1,27.44,37.05Z"/><path class="cls-6" d="M63.19,71.42H27.44A3.44,3.44,0,0,1,24,68V43.24H63.19a3.44,3.44,0,0,1,3.44,3.43V68A3.45,3.45,0,0,1,63.19,71.42ZM26.75,43.24H24V40.49A2.76,2.76,0,0,0,26.75,43.24Z"/><path class="cls-7" d="M66.62,62.83h-5.5a4.81,4.81,0,0,1,0-9.62h5.5A1.37,1.37,0,0,1,68,54.58v6.88A1.38,1.38,0,0,1,66.62,62.83Z"/><path class="cls-8" d="M61.12,55.27A2.75,2.75,0,1,1,58.38,58,2.76,2.76,0,0,1,61.12,55.27Z"/><path class="cls-6" d="M61.81,60.08a2.77,2.77,0,0,1-2.27-4.33A2.68,2.68,0,0,0,58.38,58a2.75,2.75,0,0,0,2.74,2.75,2.85,2.85,0,0,0,2.27-1.17A2.73,2.73,0,0,1,61.81,60.08Z"/><path class="cls-5" d="M63.19,70.05H27.44A3.45,3.45,0,0,1,24,66.61V68a3.44,3.44,0,0,0,3.44,3.43H63.19A3.44,3.44,0,0,0,66.63,68V66.61A3.46,3.46,0,0,1,63.19,70.05Z"/><path class="cls-9" d="M63.19,71.05H27.44A3.45,3.45,0,0,1,24,67.61V69a3.44,3.44,0,0,0,3.44,3.43H63.19A3.44,3.44,0,0,0,66.63,69V67.61A3.46,3.46,0,0,1,63.19,71.05Z"/><path class="cls-6" d="M63.19,43.24H26.75A2.76,2.76,0,0,1,24,40.49v1.37a2.76,2.76,0,0,0,2.75,2.75H63.19a3.45,3.45,0,0,1,3.44,3.44V46.67A3.45,3.45,0,0,0,63.19,43.24Z"/></g><g class="cls-10"><circle class="cls-11" cx="44.5" cy="36.45" r="16.5"/><circle class="cls-12" cx="44.5" cy="33.3" r="16.5"/><circle class="cls-7" cx="44.5" cy="33.3" r="13.36"/><circle class="cls-13" cx="44.5" cy="33.3" r="13.36"/><path class="cls-14" d="M44.52,22.8A10.5,10.5,0,1,0,55,34.22H46.14a1.9,1.9,0,0,1-1.64,1,1.88,1.88,0,1,1,0-3.75,1.9,1.9,0,0,1,1.64,1H55A10.51,10.51,0,0,0,44.52,22.8Z"/></g></svg>