<svg id="Layer_1" data-name="Layer 1" xmlns="http://www.w3.org/2000/svg" xmlns:xlink="http://www.w3.org/1999/xlink" viewBox="0 0 93 94"><defs><style>.cls-1{fill:#c4c4c4;}.cls-2{fill:#473080;stroke:#382b73;stroke-width:7px;}.cls-3{fill:#e43d91;}.cls-4{fill:#fefefe;}.cls-5{mask:url(#mask);}.cls-6{fill:#bcbec0;}.cls-7{fill:#e6e7e8;}.cls-8,.cls-9{fill:#fff;}.cls-9{fill-opacity:0.01;}.cls-10,.cls-11{fill:#f7cb15;}.cls-10{fill-rule:evenodd;}.cls-12{fill:#09cea1;}.cls-13{fill:none;}.cls-14{fill:#38face;}</style><mask id="mask" x="45.51" y="28.31" width="17.25" height="18.68" maskUnits="userSpaceOnUse"><g id="mask0_2_2268"><rect class="cls-1" x="45.51" y="28.31" width="17.25" height="14.53"/></g></mask></defs><circle class="cls-2" cx="46.5" cy="47.3" r="43"/><path class="cls-3" d="M32.41,30.8a7.58,7.58,0,1,1,10,3.43A7.58,7.58,0,0,1,32.41,30.8Z"/><path class="cls-4" d="M41.28,26.44a2.88,2.88,0,0,1,.61.1,1.27,1.27,0,0,1,.84.82,2,2,0,0,1-.07,1.74,2.25,2.25,0,0,1-1.13.86l-.64.23c-.12,0-.12.08-.1.18.09.38.17.75.26,1.12,0,.1,0,.14-.09.16s-.4.08-.6.14-.12,0-.14-.1c-.09-.37-.18-.74-.26-1.12,0-.11-.07-.13-.17-.1a2.88,2.88,0,0,1-.4.09c-.11,0-.13.06-.1.16.09.37.17.74.26,1.11,0,.11,0,.15-.1.17l-.57.13c-.11,0-.15,0-.17-.1-.08-.37-.18-.74-.25-1.12,0-.13-.08-.13-.19-.11l-1.39.32c-.1,0-.15,0-.16-.11s0-.51,0-.77c0-.1,0-.14.11-.15l.44-.1c.25-.06.34-.19.28-.44-.28-1.2-.55-2.4-.83-3.59a.42.42,0,0,0-.53-.35,5.59,5.59,0,0,0-.56.12c-.09,0-.11,0-.13-.09L35.31,25c0-.09,0-.13.08-.15.49-.1,1-.22,1.45-.33.11,0,.12-.06.1-.15-.09-.37-.17-.75-.27-1.12,0-.12,0-.15.12-.17l.57-.13c.1,0,.13,0,.15.1.08.36.18.73.25,1.1,0,.09.05.12.14.09l.45-.11c.1,0,.1-.05.08-.14-.09-.36-.17-.73-.26-1.1,0-.09,0-.13.1-.15s.4-.08.6-.14.12,0,.14.09c.08.35.18.7.24,1.06,0,.17.1.2.26.18a3.13,3.13,0,0,1,1.14,0,1.47,1.47,0,0,1,.69,2.43S41.31,26.41,41.28,26.44Z"/><path class="cls-3" d="M40.58,29.1a5.94,5.94,0,0,1-1.45.46c-.07,0-.09,0-.1-.07l-.39-1.66c0-.06,0-.09.06-.11a5.55,5.55,0,0,1,1.51-.25,1.39,1.39,0,0,1,.53.1.78.78,0,0,1,.13,1.34A1.39,1.39,0,0,1,40.58,29.1Z"/><path class="cls-3" d="M39.61,26.54a5.29,5.29,0,0,1-1.09.34c-.07,0-.1,0-.11-.07-.12-.5-.23-1-.35-1.5,0-.06,0-.09,0-.1a4.41,4.41,0,0,1,1.25-.2.79.79,0,0,1,.78.47.73.73,0,0,1-.32.94Z"/><g class="cls-5"><circle class="cls-6" cx="53.91" cy="39.5" r="7.49"/><circle class="cls-7" cx="53.91" cy="38.07" r="7.49"/><circle class="cls-8" cx="53.91" cy="38.07" r="6.06"/><circle class="cls-9" cx="53.91" cy="38.07" r="6.06"/><path class="cls-10" d="M53.92,33.3a4.77,4.77,0,1,0,4.76,5.19h-4a.86.86,0,0,1-.75.43.85.85,0,0,1,0-1.7.87.87,0,0,1,.75.44h4A4.78,4.78,0,0,0,53.92,33.3Z"/></g><path class="cls-11" d="M52.69,15.38a4.29,4.29,0,1,0,4.1,4.54A4.3,4.3,0,0,0,52.69,15.38Z"/><path class="cls-12" d="M63.49,42.84H34.72c-.11,0-.22,0-.32,0s-.32-.09-.36-.31c-.09-.49-.18-1-.31-1.45a1.63,1.63,0,0,0-1.88-1.41c-1.86,0-3.72,0-5.58,0a1.85,1.85,0,0,0-2,1.27v.64a1.81,1.81,0,0,0,2,1.28c1.43,0,2.87,0,4.3,0,.25,0,.37,0,.42.33.14.77.33,1.54.5,2.31q1.38,6.47,2.77,12.93L65,43.41A1.86,1.86,0,0,0,63.49,42.84Z"/><path class="cls-13" d="M37.58,68.15l.11.06H58.24l.12-.06Z"/><path class="cls-14" d="M37.58,68.15H58.36l-.12.06h1.57l-.1,0A10,10,0,0,0,61,68.07a1.56,1.56,0,0,0,1.23-1.61A1.58,1.58,0,0,0,60.78,65c-.21,0-.42,0-.64,0H37.8a3.29,3.29,0,0,0,.34-3.3l7.69-.9,8.56-1,9.32-1.09a1.64,1.64,0,0,0,1.64-1.79V44.6a2.24,2.24,0,0,0,0-.52,1.48,1.48,0,0,0-.35-.67l-30.74,15c.31,1.46.63,2.92.94,4.39a1.15,1.15,0,0,1-.11.7c-.37.83-.83,1.62-1.16,2.46a1.55,1.55,0,0,0,1.48,2.17c.27,0,.54,0,.81,0l-.18.08h1.7Z"/><path class="cls-11" d="M55.93,71.91a3.16,3.16,0,0,0,6.19,0q.52-2.42-2.31-3.75H58.24C56.38,69.06,55.6,70.31,55.93,71.91Z"/><path class="cls-11" d="M33.8,72A3.17,3.17,0,0,0,40,72c.39-1.63-.35-2.88-2.28-3.82H36A3.27,3.27,0,0,0,33.8,72Z"/></svg>