<svg id="Layer_1" data-name="Layer 1" xmlns="http://www.w3.org/2000/svg" xmlns:xlink="http://www.w3.org/1999/xlink" viewBox="0 0 93 94"><defs><style>.cls-1{fill:none;}.cls-2{fill:#473080;stroke:#382b73;stroke-width:7px;}.cls-3{clip-path:url(#clip-path);}.cls-4{fill:#a72973;}.cls-5{fill:#e43d91;}.cls-6{fill:#f7e890;}.cls-7{fill:#f8d81c;}</style><clipPath id="clip-path"><rect class="cls-1" x="18" y="18.8" width="56" height="56"/></clipPath></defs><circle class="cls-2" cx="46.54" cy="47.3" r="43"/><g class="cls-3"><path class="cls-4" d="M64.3,47.21l-.79,8.35A17.38,17.38,0,0,1,46.2,71.31H45a17.3,17.3,0,0,1-12.3-5.09,17.36,17.36,0,0,1-5.09-12.3c-.13-4.37,2-12.52,3.3-16.73a.25.25,0,0,1,.48.06A3.92,3.92,0,0,0,39,38.37C42.19,29,39,21.63,38.39,19.11a.25.25,0,0,1,.36-.27c10.78,5.8,13.93,11.63,14.79,17.08a1.43,1.43,0,0,0,2.81.1,10.62,10.62,0,0,0,.12-3.88.25.25,0,0,1,.42-.21c5.53,5.29,4.07,12.54,2.4,16.94a1.16,1.16,0,0,0,1.87,1.27,17.41,17.41,0,0,0,2.69-3.06A.25.25,0,0,1,64.3,47.21Z"/><path class="cls-5" d="M64.3,47.21l-.79,8.35A17.38,17.38,0,0,1,46.2,71.31H45a17.6,17.6,0,0,1-5.37-.84,18,18,0,0,1-4.76-12.19c-.14-4.58,2.18-13.14,3.53-17.55a.27.27,0,0,1,.52.06A1.8,1.8,0,0,0,39,41c.37,4.43,6.7,5.18,8.15,1a28,28,0,0,0,.17-17.24,18.72,18.72,0,0,1,6.26,11.2,1.43,1.43,0,0,0,2.81.1,10.62,10.62,0,0,0,.12-3.88.25.25,0,0,1,.42-.21c5.53,5.29,4.07,12.54,2.4,16.94a1.16,1.16,0,0,0,1.87,1.27,17.41,17.41,0,0,0,2.69-3.06A.25.25,0,0,1,64.3,47.21Z"/><path class="cls-6" d="M53,53.7V73.05a1.76,1.76,0,0,1-1.76,1.75H40.79A1.76,1.76,0,0,1,39,73.05V53.7a1.76,1.76,0,0,1,1.76-1.76h10.4A1.76,1.76,0,0,1,53,53.7Z"/><path class="cls-7" d="M53,53.7V73.05a1.76,1.76,0,0,1-1.76,1.75H43.47a1.76,1.76,0,0,1-1.76-1.75V53.7a1.76,1.76,0,0,1,1.76-1.76h7.72A1.76,1.76,0,0,1,53,53.7Z"/><path class="cls-7" d="M51.79,49.83v7.48A6.76,6.76,0,0,1,45,64.05H43a8,8,0,0,1-8-7.95V49.83Z"/><path class="cls-6" d="M51.79,51.7v5.61A6.76,6.76,0,0,1,45,64.05H43.1A.92.92,0,0,1,42.19,63l1-5.38a6.57,6.57,0,0,1,1.21-2.77A8,8,0,0,1,49.76,52S50.59,51.86,51.79,51.7Z"/><path class="cls-6" d="M39.46,46.59v3.62A1.79,1.79,0,0,1,37.67,52h-.82a1.79,1.79,0,0,1-1.78-1.79V46.59A1.79,1.79,0,0,1,36,45a3.08,3.08,0,0,1,1.64-.21A1.8,1.8,0,0,1,39.46,46.59Z"/><path class="cls-6" d="M43.86,45.32v5a2,2,0,0,1-2,2h-.41a2,2,0,0,1-2-2v-5a2,2,0,0,1,1-1.7,2.37,2.37,0,0,1,1.44-.29A2,2,0,0,1,43.86,45.32Z"/><path class="cls-6" d="M48.25,44.41v5.75a2.11,2.11,0,0,1-2.1,2.1H46a2.11,2.11,0,0,1-2.1-2.1V44.41a2.11,2.11,0,0,1,2.1-2.1h.19A2.11,2.11,0,0,1,48.25,44.41Z"/><path class="cls-6" d="M52.65,43.84v6.25a2.18,2.18,0,0,1-2.17,2.17h-.06a2.18,2.18,0,0,1-2.17-2.17V43.84a2.2,2.2,0,0,1,4.4,0Z"/><path class="cls-7" d="M39.46,46.59v2.77a1.78,1.78,0,0,1-.83.2h-.82A1.78,1.78,0,0,1,36,47.78V45a3.09,3.09,0,0,1,1.64-.2A1.79,1.79,0,0,1,39.46,46.59Z"/><path class="cls-7" d="M43.86,45.32v4.21a2,2,0,0,1-1,.29h-.41a2,2,0,0,1-2-2V43.62a2.37,2.37,0,0,1,1.44-.29A2,2,0,0,1,43.86,45.32Z"/><path class="cls-7" d="M48.25,44.41v5.07a2.09,2.09,0,0,1-1.13.34h-.2a2.11,2.11,0,0,1-2.1-2.1V42.65A2.22,2.22,0,0,1,48.25,44.41Z"/><path class="cls-7" d="M52.65,43.84v5.61a2.19,2.19,0,0,1-1.21.37h-.06a2.17,2.17,0,0,1-2.16-2.17V42A2.21,2.21,0,0,1,52.65,43.84Z"/><path class="cls-6" d="M52.65,46.19v3.26a2.19,2.19,0,0,1-1.21.37h-.06a2.17,2.17,0,0,1-2.16-2.17V45.56A1.39,1.39,0,0,1,50.34,45a1.38,1.38,0,0,1,.8.25l.61.43Z"/><path class="cls-7" d="M56.9,51.21A4,4,0,0,0,55.21,48l-2.48-1.73-.57-.39a1.32,1.32,0,0,0-1.82.33A2.74,2.74,0,0,0,51,50l.81.56.06,0a.65.65,0,0,1-.26,1.09,9.21,9.21,0,0,0-4.48,3.07,6.42,6.42,0,0,0-1.27,2.84l-.74,4.11a2,2,0,0,0,2,2.36,9.82,9.82,0,0,0,9.79-9.78V51.21Z"/><path class="cls-6" d="M44.23,64.05H43a8,8,0,0,1-8-7.95V51a1.21,1.21,0,1,1,2.41,0V57.3A6.77,6.77,0,0,0,44.23,64.05Z"/></g></svg>