<svg id="Layer_1" data-name="Layer 1" xmlns="http://www.w3.org/2000/svg" xmlns:xlink="http://www.w3.org/1999/xlink" viewBox="0 0 93 94"><defs><style>.cls-1{fill:none;}.cls-2{fill:#473080;stroke:#382b73;stroke-width:7px;}.cls-3{fill:#382b73;}.cls-4{clip-path:url(#clip-path);}.cls-5{fill:#38face;}.cls-6{fill:#09cea1;}.cls-7{fill:#fedf39;}.cls-8{fill:#f7cb15;}.cls-9{fill:#ef5a9d;}.cls-10{fill:#e43d91;}.cls-11{fill:#17e6b7;}.cls-12{fill:#07a480;}</style><clipPath id="clip-path"><rect class="cls-1" x="22" y="25.8" width="49" height="49"/></clipPath></defs><circle class="cls-2" cx="46.5" cy="47.3" r="43"/><path class="cls-3" d="M58.06,76.68H34.94a1.44,1.44,0,0,1,0-2.88H58.06a1.44,1.44,0,1,1,0,2.88Z"/><g class="cls-4"><path class="cls-5" d="M56.43,66.89,46.5,64l-9.93,2.87a1.11,1.11,0,0,0-.12.55v5.93h20.1V67.44A1.11,1.11,0,0,0,56.43,66.89Z"/><path class="cls-6" d="M56.55,73.37V67.44a1.11,1.11,0,0,0-.12-.55L46.5,64v9.35Z"/><path class="cls-7" d="M69.56,28.68H62.23c0-.49.06-.95.06-1.44a1.43,1.43,0,0,0-1.43-1.44H32.14a1.43,1.43,0,0,0-1.43,1.44c0,.49.05,1,.06,1.44H23.44A1.43,1.43,0,0,0,22,30.11v3.64A15.09,15.09,0,0,0,36.33,48.69a14.3,14.3,0,0,0,5.83,4.91,21.4,21.4,0,0,1-5.28,12.83,1,1,0,0,0-.31.46H56.43a1,1,0,0,0-.31-.46A21.11,21.11,0,0,1,50.84,53.6a14.33,14.33,0,0,0,5.84-4.91A15.08,15.08,0,0,0,71,33.75V30.11A1.43,1.43,0,0,0,69.56,28.68ZM24.87,33.75v-2.2h6a38.35,38.35,0,0,0,3.57,14A12.25,12.25,0,0,1,24.87,33.75Zm43.26,0a12.23,12.23,0,0,1-9.58,11.83,38.23,38.23,0,0,0,3.56-14h6Z"/><path class="cls-8" d="M69.56,28.68H62.23c0-.49.06-.95.06-1.44a1.43,1.43,0,0,0-1.43-1.44H46.5V66.89h9.93a1,1,0,0,0-.31-.46A21.11,21.11,0,0,1,50.84,53.6a14.33,14.33,0,0,0,5.84-4.91A15.08,15.08,0,0,0,71,33.75V30.11A1.43,1.43,0,0,0,69.56,28.68Zm-1.43,5.07a12.23,12.23,0,0,1-9.58,11.83,38.23,38.23,0,0,0,3.56-14h6Z"/><path class="cls-9" d="M48.79,44.06,46.5,42.87l-2.29,1.19A1.44,1.44,0,0,1,42.7,44a1.43,1.43,0,0,1-.57-1.39L42.55,40l-1.83-1.82a1.41,1.41,0,0,1-.36-1.46,1.43,1.43,0,0,1,1.15-1l2.55-.38,1.16-2.31a1.49,1.49,0,0,1,2.56,0l1.16,2.31,2.55.38a1.43,1.43,0,0,1,.79,2.44L50.45,40l.42,2.55a1.43,1.43,0,0,1-2.08,1.5Z"/><path class="cls-10" d="M48.79,44.06a1.43,1.43,0,0,0,2.08-1.5L50.45,40l1.83-1.82a1.43,1.43,0,0,0-.79-2.44l-2.55-.38-1.16-2.31a1.39,1.39,0,0,0-1.28-.73V42.87Z"/><path class="cls-11" d="M58,74.8H35a1.44,1.44,0,1,1,0-2.87H58a1.44,1.44,0,1,1,0,2.87Z"/><path class="cls-12" d="M58,71.93H46.5V74.8H58a1.44,1.44,0,1,0,0-2.87Z"/></g></svg>