<svg width="93" height="94" viewBox="0 0 93 94" fill="none" xmlns="http://www.w3.org/2000/svg">
<circle cx="46.5" cy="47.3047" r="43" fill="#473080" stroke="#382B73" stroke-width="7"/>
<path d="M58.0556 76.6758H34.9444C34.1461 76.6758 33.5 76.0337 33.5 75.2402C33.5 74.4468 34.1461 73.8047 34.9444 73.8047H58.0556C58.8539 73.8047 59.5 74.4468 59.5 75.2402C59.5 76.0337 58.8539 76.6758 58.0556 76.6758Z" fill="#382B73"/>
<g clip-path="url(#clip0_2_2311)">
<path d="M56.4341 66.89L46.5 64.0189L36.5659 66.89C36.4799 67.0623 36.4512 67.2345 36.4512 67.4355V73.3691H56.5488V67.4355C56.5488 67.2345 56.5201 67.0623 56.4341 66.89Z" fill="#38FACE"/>
<path d="M56.5488 73.3691V67.4355C56.5488 67.2345 56.5201 67.0623 56.4341 66.89L46.5 64.0189V73.3691H56.5488Z" fill="#09CEA1"/>
<path d="M69.5645 28.6758H62.2293C62.2419 28.1909 62.291 27.7341 62.291 27.2402C62.291 26.4362 61.6595 25.8047 60.8555 25.8047H32.1445C31.3405 25.8047 30.709 26.4362 30.709 27.2402C30.709 27.7341 30.7581 28.1909 30.7705 28.6758H23.4355C22.6421 28.6758 22 29.3179 22 30.1113V33.7479C22 41.7634 28.4209 48.2747 36.3337 48.6939C37.9822 50.9636 39.9387 52.648 42.1646 53.5969C41.8201 60.5736 37.8293 65.4258 36.8819 66.4308C36.7383 66.5455 36.6234 66.7178 36.566 66.89H56.4341C56.3766 66.7178 56.2618 66.5455 56.1182 66.4308C55.142 65.4258 51.1799 60.6023 50.8354 53.5969C53.0618 52.6478 55.03 50.963 56.6798 48.6925C64.5859 48.2665 71 41.7589 71 33.7479V30.1113C71 29.3179 70.3579 28.6758 69.5645 28.6758ZM24.8711 33.7479V31.5469H30.8937C31.2663 36.2916 32.2952 41.3168 34.4577 45.5873C29.0371 44.3666 24.8711 39.5326 24.8711 33.7479ZM68.1289 33.7479C68.1289 39.5297 63.9667 44.3613 58.5501 45.5848C60.6955 41.3144 61.7301 36.3379 62.1063 31.5469H68.1289V33.7479Z" fill="#FEDF39"/>
<path d="M69.5645 28.6758H62.2293C62.2419 28.1909 62.291 27.7341 62.291 27.2402C62.291 26.4362 61.6595 25.8047 60.8555 25.8047H46.5V66.89H56.4341C56.3766 66.7178 56.2618 66.5455 56.1182 66.4308C55.142 65.4258 51.1799 60.6023 50.8354 53.5969C53.0618 52.6478 55.03 50.963 56.6798 48.6925C64.5859 48.2665 71 41.7589 71 33.7479V30.1113C71 29.3179 70.3579 28.6758 69.5645 28.6758ZM68.1289 33.7479C68.1289 39.5297 63.9667 44.3613 58.5501 45.5848C60.6956 41.3144 61.7303 36.3379 62.1063 31.5469H68.1289V33.7479Z" fill="#F7CB15"/>
<path d="M48.7907 44.0645L46.4999 42.8743L44.2092 44.0645C43.7297 44.3112 43.1437 44.2706 42.7036 43.9524C42.2633 43.6327 42.0419 43.0916 42.1316 42.556L42.5522 40.0059L40.7157 38.1933C40.316 37.8036 40.1938 37.2259 40.3568 36.727C40.5251 36.211 40.9709 35.8325 41.5092 35.7513L44.0606 35.3671L45.2158 33.0582C45.7037 32.0853 47.2962 32.0853 47.7841 33.0582L48.9392 35.3671L51.4907 35.7513C52.029 35.8326 52.4748 36.2111 52.643 36.727C52.8113 37.2442 52.6738 37.812 52.2841 38.1933L50.4477 40.0059L50.8683 42.556C50.9581 43.0916 50.7365 43.6327 50.2963 43.9524C49.859 44.2692 49.2741 44.316 48.7907 44.0645Z" fill="#EF5A9D"/>
<path d="M48.7908 44.0644C49.2742 44.316 49.8592 44.2692 50.2964 43.9523C50.7366 43.6326 50.958 43.0915 50.8684 42.556L50.4478 40.0059L52.2842 38.1932C52.6739 37.812 52.8113 37.2442 52.6431 36.7269C52.4748 36.2109 52.0291 35.8324 51.4907 35.7512L48.9393 35.367L47.7841 33.0581C47.5402 32.5716 47.0201 32.3284 46.5 32.3284V42.8742L48.7908 44.0644Z" fill="#E43D91"/>
<path d="M57.9844 74.8047H35.0156C34.2222 74.8047 33.5801 74.1626 33.5801 73.3691C33.5801 72.5757 34.2222 71.9336 35.0156 71.9336H57.9844C58.7778 71.9336 59.4199 72.5757 59.4199 73.3691C59.4199 74.1626 58.7778 74.8047 57.9844 74.8047Z" fill="#17E6B7"/>
<path d="M57.9844 71.9336H46.5V74.8047H57.9844C58.7778 74.8047 59.4199 74.1626 59.4199 73.3691C59.4199 72.5757 58.7778 71.9336 57.9844 71.9336Z" fill="#07A480"/>
</g>
<defs>
<clipPath id="clip0_2_2311">
<rect width="49" height="49" fill="white" transform="translate(22 25.8047)"/>
</clipPath>
</defs>
</svg>
