<svg width="94" height="94" viewBox="0 0 94 94" fill="none" xmlns="http://www.w3.org/2000/svg">
<circle cx="46.5389" cy="47.3047" r="43" fill="#473080" stroke="#382B73" stroke-width="7"/>
<g clip-path="url(#clip0_2_2289)">
<path d="M64.2976 47.214L63.5111 55.5569C62.669 64.4867 55.1729 71.3099 46.2033 71.3099H45.0156C43.143 71.3099 41.34 71.0138 39.6498 70.4652C37.0082 69.6094 34.6416 68.1371 32.7229 66.2184C29.5766 63.0721 27.6305 58.7257 27.6305 53.9248C27.5015 49.5523 29.674 41.3975 30.931 37.1925C31.01 36.9306 31.3933 36.9738 31.4125 37.2472C31.7099 41.7901 37.699 42.3614 39.0359 38.3666C42.1877 28.9574 38.9585 21.6267 38.3941 19.1051C38.3476 18.8987 38.5642 18.7342 38.75 18.8351C49.5307 24.6383 52.6778 30.4664 53.5443 35.9245C53.7899 37.4737 55.9958 37.5506 56.3457 36.0219C56.7132 34.4137 56.6008 32.9684 56.4739 32.1446C56.4389 31.9135 56.7174 31.7682 56.8866 31.9302C62.4207 37.2177 60.9634 44.4737 59.2903 48.8666C58.8549 50.0091 60.2572 50.9657 61.1638 50.1449C62.1738 49.2315 63.077 48.201 63.8477 47.0803C63.9836 46.8821 64.2942 46.9748 64.2976 47.214Z" fill="#A72973"/>
<path d="M64.2976 47.214L63.511 55.5568C62.6689 64.4867 55.1729 71.3098 46.2033 71.3098H45.0155C43.1429 71.3098 41.3399 71.0137 39.6497 70.4651C36.6872 67.2352 34.8851 62.967 34.8851 58.2848C34.7458 53.6979 37.0747 45.1431 38.4227 40.7322C38.5064 40.4567 38.9179 40.502 38.9384 40.7878C38.9439 40.8613 38.9495 40.9339 38.955 41.0052C39.3259 45.4448 45.6637 46.1869 47.1086 41.964C49.6247 34.6119 48.3463 28.4677 47.2799 24.7186C51.2794 28.428 52.9478 32.1685 53.5442 35.9244C53.7899 37.4736 55.9958 37.5505 56.3457 36.0219C56.7131 34.4137 56.6007 32.9683 56.4738 32.1446C56.4388 31.9135 56.7174 31.7682 56.8866 31.9301C62.4207 37.2177 60.9633 44.4736 59.2902 48.8666C58.8549 50.009 60.2571 50.9656 61.1637 50.1449C62.1737 49.2314 63.0769 48.2009 63.8477 47.0803C63.9835 46.882 64.2942 46.9747 64.2976 47.214Z" fill="#E43D91"/>
<path d="M52.9466 53.7004V73.0478C52.9466 74.0142 52.1562 74.8046 51.1898 74.8046H40.7876C39.8212 74.8046 39.0316 74.0142 39.0316 73.0478V53.7004C39.0316 52.7339 39.8212 51.9431 40.7876 51.9431H51.1898C52.1562 51.9431 52.9466 52.7339 52.9466 53.7004Z" fill="#F7E890"/>
<path d="M52.9471 53.7004V73.0474C52.9471 74.0143 52.1567 74.8043 51.1902 74.8043H43.4712C42.5048 74.8043 41.7144 74.0143 41.7144 73.0474V53.7004C41.7144 52.734 42.5048 51.9436 43.4712 51.9436H51.1902C52.1567 51.9436 52.9471 52.734 52.9471 53.7004Z" fill="#F8D81C"/>
<path d="M51.7875 49.83V57.3068C51.7875 61.0178 48.751 64.0543 45.0396 64.0543H43.0221C38.6462 64.0543 35.0659 60.4744 35.0659 56.0985V49.8304H51.7875V49.83Z" fill="#F8D81C"/>
<path d="M51.7875 51.7021V57.3076C51.7875 61.0182 48.751 64.0543 45.0404 64.0543H44.4047C44.3974 64.0538 44.394 64.0538 44.394 64.0538H43.1003C42.5209 64.0538 42.083 63.5292 42.1864 62.9592L43.1644 57.5793C43.3464 56.5766 43.748 55.6217 44.3688 54.8134C46.3862 52.1849 49.7568 51.9893 49.7568 51.9893C49.7568 51.9893 50.5912 51.856 51.7875 51.7021Z" fill="#F7E890"/>
<path d="M39.4581 46.5924V50.2146C39.4581 51.1977 38.6536 52.0018 37.6705 52.0018H36.8527C35.8696 52.0018 35.0656 51.1977 35.0656 50.2146V46.5924C35.0656 45.9067 35.4573 45.3077 36.0277 45.009C36.5015 44.7591 36.8271 44.8048 37.6705 44.8048C38.6536 44.8048 39.4581 45.6093 39.4581 46.5924Z" fill="#F7E890"/>
<path d="M43.8604 45.3208V50.2666C43.8604 51.3616 42.9649 52.2567 41.8703 52.2567H41.4584C40.3634 52.2567 39.4683 51.3616 39.4683 50.2666V45.3208C39.4683 44.6022 39.8545 43.969 40.4296 43.6191C40.9671 43.2927 41.4024 43.3307 41.8698 43.3307C42.9649 43.3307 43.8604 44.2262 43.8604 45.3208Z" fill="#F7E890"/>
<path d="M48.2542 44.4104V50.1556C48.2542 51.3117 47.3087 52.2568 46.153 52.2568H45.9629C44.8072 52.2568 43.8617 51.3117 43.8617 50.1556V44.4104C43.8617 43.2521 44.8102 42.3092 45.9629 42.3092H46.153C47.3087 42.3092 48.2542 43.2551 48.2542 44.4104Z" fill="#F7E890"/>
<path d="M52.6468 43.8426V50.0902C52.6468 51.2822 51.6714 52.2568 50.4798 52.2568H50.4217C49.2296 52.2568 48.2542 51.2822 48.2542 50.0902V43.8426C48.2542 42.7198 49.1399 41.6752 50.4798 41.6752C51.6714 41.6752 52.6468 42.6506 52.6468 43.8426Z" fill="#F7E890"/>
<path d="M39.4581 46.5923V49.3591C39.2111 49.4894 38.93 49.5633 38.6331 49.5633H37.8149C36.8318 49.5633 36.0277 48.7588 36.0277 47.7766V45.0093C36.5015 44.759 36.8271 44.8051 37.6705 44.8051C38.6536 44.8047 39.4581 45.6092 39.4581 46.5923Z" fill="#F8D81C"/>
<path d="M43.8604 45.3208V49.5301C43.5596 49.7129 43.2076 49.8184 42.8316 49.8184H42.4206C41.326 49.8184 40.43 48.9229 40.43 47.8283V43.6191C40.9671 43.2927 41.4024 43.3307 41.8703 43.3307C42.9649 43.3307 43.8604 44.2262 43.8604 45.3208Z" fill="#F8D81C"/>
<path d="M48.2542 44.4103V49.4809C47.9252 49.6941 47.5343 49.8184 47.1156 49.8184H46.925C45.7697 49.8184 44.8238 48.8734 44.8238 47.7172V42.6471C46.1171 41.805 48.2542 42.5544 48.2542 44.4103Z" fill="#F8D81C"/>
<path d="M52.6467 43.8425V49.4501C52.3019 49.6826 51.8866 49.8184 51.4418 49.8184H51.3833C50.1917 49.8184 49.2163 48.8439 49.2163 47.6519V42.0438C50.6002 41.1111 52.6467 42.0331 52.6467 43.8425Z" fill="#F8D81C"/>
<path d="M52.6467 46.1949V49.4501C52.3019 49.6826 51.8866 49.8184 51.4418 49.8184H51.3833C50.1917 49.8184 49.2163 48.8439 49.2163 47.6519V45.5579C49.4923 45.2016 49.9123 45.0106 50.3378 45.0106C50.6168 45.0106 50.8967 45.0918 51.1415 45.2614L51.7529 45.6865L52.6467 46.1949Z" fill="#F7E890"/>
<path d="M56.9033 51.2142C56.9033 49.9188 56.2693 48.7059 55.2054 47.9667L52.7261 46.2441L52.1617 45.8519C51.9353 45.6951 51.6764 45.6199 51.4192 45.6199C51.0047 45.6199 50.5967 45.8151 50.3429 46.1796C49.4884 47.4096 49.7956 49.1156 51.0257 49.9701L51.843 50.5341C51.8622 50.5477 51.8806 50.5623 51.8981 50.5776C52.2745 50.9041 52.1134 51.527 51.6362 51.6701C50.8633 51.9017 48.7694 52.6861 47.1587 54.7365C46.5088 55.5636 46.0824 56.5441 45.8944 57.5793L45.148 61.686C44.9237 62.9186 45.8709 64.0534 47.124 64.0534C52.5035 64.0534 56.9054 59.6519 56.9054 54.272V52.8472L56.9033 51.2142Z" fill="#F8D81C"/>
<path d="M44.2291 64.0543H43.0221C38.6462 64.0543 35.0659 60.4744 35.0659 56.0985V51.0374C35.0659 50.3704 35.6064 49.83 36.2729 49.83C36.9398 49.83 37.4803 50.3704 37.4803 51.0374V57.3046C37.4803 61.0174 40.5176 64.0543 44.2291 64.0543Z" fill="#F7E890"/>
</g>
<defs>
<clipPath id="clip0_2_2289">
<rect width="56" height="56" fill="white" transform="translate(18 18.8047)"/>
</clipPath>
</defs>
</svg>
